<?xml version="1.0" standalone="no"?>
<!DOCTYPE svg PUBLIC "-//W3C//DTD SVG 20010904//EN"
 "http://www.w3.org/TR/2001/REC-SVG-20010904/DTD/svg10.dtd">
<svg version="1.0" xmlns="http://www.w3.org/2000/svg"
 width="400.000000pt" height="400.000000pt" viewBox="0 0 400.000000 400.000000"
 preserveAspectRatio="xMidYMid meet">
<metadata>
Created by potrace 1.14, written by Peter Selinger 2001-2017
</metadata>
<g transform="translate(0.000000,400.000000) scale(0.100000,-0.100000)"
fill="#000000" stroke="none">
<path d="M1830 3815 c-55 -24 -93 -27 -120 -9 -8 5 -55 8 -105 7 -88 -1 -92
-3 -186 -53 -103 -55 -152 -96 -239 -200 -30 -36 -79 -92 -110 -125 -30 -33
-68 -78 -84 -100 -33 -45 -184 -170 -244 -200 -21 -11 -37 -25 -35 -31 2 -7
-8 -15 -22 -18 -34 -9 -22 -28 13 -20 26 5 26 5 7 -11 -12 -10 -29 -13 -46
-10 -17 4 -30 1 -39 -10 -7 -8 -17 -15 -22 -15 -6 0 -46 -32 -89 -71 -64 -58
-86 -86 -115 -145 -38 -79 -33 -76 -144 -90 -71 -8 -100 -20 -100 -39 0 -14 3
-14 30 0 16 8 43 15 61 15 l32 0 -61 -64 c-34 -35 -62 -67 -62 -71 0 -3 26 17
58 45 59 52 104 80 128 80 23 0 26 -19 5 -42 -15 -15 -18 -25 -10 -34 15 -18
1 -80 -33 -145 -36 -68 -90 -105 -132 -89 -14 5 -26 6 -26 1 0 -5 8 -12 17
-15 15 -6 12 -10 -15 -28 -18 -11 -31 -22 -29 -25 3 -2 25 1 51 7 35 8 52 7
69 -2 20 -11 18 -13 -28 -19 -60 -8 -105 -27 -105 -45 0 -10 6 -11 26 -4 32
13 34 12 34 -2 0 -6 -3 -8 -7 -5 -3 4 -12 -1 -19 -11 -10 -13 -17 -15 -31 -6
-20 11 -53 7 -53 -7 0 -5 -11 -9 -25 -9 l-24 0 0 -129 c-1 -122 1 -130 20
-136 11 -4 25 -3 32 2 21 15 49 9 64 -14 14 -20 14 -23 0 -29 -9 -3 -13 -12
-10 -20 7 -18 -31 -90 -67 -129 -15 -16 -31 -41 -34 -55 -6 -23 -4 -22 24 10
16 19 30 30 30 24 0 -5 -13 -25 -30 -44 -25 -30 -29 -43 -30 -95 l0 -60 21 35
c19 32 86 99 100 100 3 0 14 -18 24 -40 10 -22 20 -38 23 -36 2 3 15 0 29 -5
24 -9 25 -8 19 17 -4 14 -4 34 -1 44 5 15 11 17 38 9 18 -5 41 -19 52 -33 26
-30 52 -24 30 7 -21 29 -19 37 8 37 36 0 97 -80 97 -127 0 -22 -49 -41 -135
-53 -67 -9 -92 -1 -101 34 -4 18 -11 23 -27 19 -12 -3 -26 -11 -32 -17 -21
-25 -44 -25 -82 1 l-38 25 29 -31 c17 -17 39 -31 51 -31 12 0 37 -11 56 -25
19 -14 54 -31 79 -37 l45 -12 -32 -8 c-60 -16 -59 -37 5 -119 31 -41 76 -91
99 -112 l42 -39 -9 32 c-5 18 -15 40 -22 49 -7 9 -21 31 -32 49 l-18 33 62 -5
c70 -7 84 -12 76 -31 -2 -7 2 -16 11 -19 12 -5 14 -17 10 -59 -3 -28 -3 -43 0
-33 3 11 8 14 12 8 3 -5 22 -13 41 -17 l35 -6 -4 57 c-3 50 0 60 20 76 l24 19
-22 -6 c-14 -4 -23 -2 -23 4 0 6 15 11 33 11 17 0 50 5 72 10 31 7 48 5 82
-10 24 -10 43 -25 43 -33 0 -21 33 -47 61 -47 13 0 51 18 84 40 73 48 89 51
80 11 -5 -23 -1 -31 19 -45 38 -24 49 -21 102 32 27 26 76 70 108 97 33 28 69
59 80 71 12 12 39 34 61 50 22 16 45 34 50 40 35 36 83 62 109 57 19 -4 34 1
49 14 51 47 58 46 142 -8 81 -53 164 -93 173 -84 3 3 0 5 -7 5 -9 0 -8 4 3 15
16 17 44 10 63 -14 9 -13 8 -17 -5 -23 -13 -5 -11 -7 8 -8 14 -2 29 -2 34 -1
5 1 16 -5 25 -13 22 -20 153 -63 233 -75 106 -17 307 -16 321 2 17 20 95 49
102 37 3 -6 1 -10 -4 -10 -6 0 -11 -9 -11 -20 0 -24 -7 -24 155 -5 143 17 346
57 397 79 l33 13 -28 8 c-21 6 -25 10 -15 16 9 6 5 9 -13 9 -77 0 -12 55 95
80 27 6 51 9 54 6 2 -3 13 -1 23 5 16 8 21 6 28 -13 7 -18 4 -28 -12 -45 -29
-33 -17 -37 44 -15 59 20 67 36 30 55 -14 7 -26 18 -29 26 -3 8 0 11 7 7 6 -4
11 -2 11 3 0 6 -11 11 -25 11 -14 0 -25 5 -25 10 0 6 9 10 21 10 12 0 19 5 16
13 -5 13 23 67 34 67 4 0 17 11 30 25 35 38 67 52 136 60 84 9 121 -6 121 -51
0 -18 3 -37 7 -43 3 -6 -1 -11 -10 -11 -8 0 -18 -7 -21 -15 -4 -8 -18 -15 -34
-15 -26 0 -35 -18 -18 -35 16 -16 202 98 281 173 35 34 37 40 37 97 l0 61 -46
22 c-36 18 -44 26 -39 40 26 59 2 117 -43 105 -16 -4 -22 -1 -22 11 0 13 -10
11 -60 -14 l-61 -31 -32 25 c-46 35 -100 56 -125 49 -13 -3 -22 -1 -22 6 0 6
5 11 10 11 6 0 10 5 10 10 0 6 -9 10 -19 10 -11 0 -23 -4 -26 -10 -3 -5 -13
-10 -22 -10 -11 0 -14 6 -9 26 4 15 3 23 -3 20 -12 -7 -21 17 -21 56 0 16 -9
41 -20 55 -12 15 -20 41 -20 63 0 24 -5 40 -15 44 -8 3 -15 17 -15 30 0 18 -4
24 -15 20 -11 -5 -15 1 -15 19 0 16 -14 37 -40 61 -46 42 -49 42 -77 17 -12
-11 -23 -18 -25 -15 -5 4 -16 -17 -37 -68 -10 -26 -38 -37 -54 -22 -5 5 10 56
30 104 3 8 5 26 4 40 -1 16 10 41 28 64 34 42 40 88 20 145 -8 23 -17 31 -34
31 -23 0 -29 13 -40 83 -4 27 -25 82 -47 122 -17 32 -121 135 -136 135 -4 0
-18 9 -29 20 -12 10 -51 33 -87 50 -42 20 -66 37 -66 48 0 9 -11 43 -24 74
-18 45 -41 74 -101 130 -77 72 -162 138 -178 138 -5 0 -21 8 -35 18 -15 10
-55 27 -90 37 -34 10 -58 21 -52 25 5 3 -14 16 -43 28 -60 25 -79 28 -52 9 27
-20 4 -29 -47 -18 -24 5 -65 12 -93 15 -27 3 -76 15 -107 26 -68 24 -59 24
-128 -5z m-80 -554 c0 -5 -6 -12 -12 -14 -7 -2 0 -3 15 -1 28 4 68 -16 97 -47
15 -16 59 -43 72 -44 3 0 10 -3 14 -7 4 -5 15 -8 25 -8 17 0 42 -42 54 -92 4
-15 13 -29 21 -32 8 -3 14 -17 14 -31 0 -14 5 -25 11 -25 13 0 72 40 77 52 6
14 33 38 43 38 6 0 6 -7 1 -17 -14 -28 2 -57 34 -64 l29 -6 -45 -20 c-25 -12
-63 -42 -86 -69 -23 -27 -62 -69 -86 -94 -24 -25 -50 -60 -58 -78 -11 -28 -17
-33 -37 -29 -44 8 -39 -43 10 -94 13 -14 27 -35 31 -46 3 -11 22 -45 40 -76
19 -31 30 -57 24 -57 -16 0 0 -71 23 -103 20 -27 19 -33 -10 -77 -7 -11 -35
-16 -93 -20 -47 -3 -82 -9 -81 -15 5 -26 232 -47 308 -29 28 7 29 6 12 -11
-10 -9 -20 -15 -24 -12 -3 3 -19 -7 -37 -24 -17 -16 -48 -34 -68 -39 -21 -6
-56 -15 -78 -20 -22 -6 -44 -8 -49 -6 -5 3 -22 -1 -37 -9 -35 -18 -80 -19 -87
-2 -2 6 -1 41 4 77 4 36 10 99 12 140 l5 74 -22 -26 c-12 -15 -40 -65 -64
-110 -62 -122 -64 -123 -123 -120 -50 2 -119 27 -119 42 0 5 -11 21 -24 37
-14 17 -29 52 -34 84 -6 31 -20 83 -31 117 -12 34 -24 89 -27 123 -3 33 -13
98 -23 144 -11 49 -15 88 -10 97 5 9 3 48 -5 91 -13 76 -11 137 5 137 5 0 9 6
9 13 0 8 7 28 16 45 8 18 12 37 8 44 -4 7 -4 10 1 6 9 -9 37 40 30 52 -3 4 2
13 10 20 7 6 11 18 8 26 -3 8 1 14 11 14 18 0 22 15 6 25 -21 13 0 21 46 18
27 -2 54 3 62 10 13 10 15 9 9 -5 -4 -12 -2 -15 8 -12 8 3 11 12 9 19 -7 17
32 38 58 32 11 -3 21 0 25 9 6 15 73 20 73 5z m540 -404 c0 -14 -77 -67 -97
-67 -19 0 -16 -17 5 -29 16 -9 15 -12 -8 -28 -14 -10 -34 -23 -45 -29 -11 -5
-33 -19 -50 -30 -35 -22 -30 -11 24 56 20 24 36 49 37 55 0 5 2 18 2 28 4 38
132 81 132 44z m909 -29 c-1 -31 -1 -31 -8 -8 -5 14 -6 28 -4 33 9 15 13 6 12
-25z m-763 -165 c-4 -9 2 -25 14 -38 21 -23 40 -102 40 -171 0 -68 -35 -134
-72 -134 -10 0 -18 -5 -18 -11 0 -18 -61 1 -130 42 -36 21 -87 46 -113 55 -37
13 -47 21 -47 38 0 12 -14 38 -31 57 -43 47 -53 76 -34 95 16 16 19 10 16 -28
-2 -15 6 -18 43 -18 25 0 46 4 46 9 0 14 64 34 68 21 6 -17 42 -11 43 8 0 12
2 13 6 3 3 -8 -2 -20 -13 -28 -13 -9 -14 -13 -3 -13 21 1 99 38 99 47 0 5 14
17 31 27 17 10 28 24 25 31 -6 16 2 25 22 25 9 0 12 -6 8 -17z m705 -46 c-10
-9 -11 -8 -5 6 3 10 9 15 12 12 3 -3 0 -11 -7 -18z m-981 -18 c0 -5 -10 -9
-21 -9 -18 0 -19 2 -9 15 12 15 30 12 30 -6z m936 -34 c-4 -14 -1 -25 7 -28 6
-2 9 -8 4 -12 -12 -13 -34 25 -29 51 2 13 9 21 14 18 5 -3 7 -17 4 -29z m39 6
c-3 -12 -11 -21 -16 -21 -6 0 -8 3 -6 8 2 4 7 16 11 26 9 25 20 13 11 -13z
m-2743 -33 c0 -24 2 -69 4 -101 2 -51 -1 -61 -24 -82 -27 -26 -37 -27 -84 -16
l-27 6 34 53 c24 39 34 48 37 35 2 -9 12 19 22 65 20 90 35 106 38 40z m1768
-212 c0 -19 -19 -31 -30 -20 -5 5 -6 21 -3 36 4 23 7 25 19 13 8 -7 14 -20 14
-29z m-1884 -61 c-10 -8 -22 -12 -27 -10 -4 3 -10 1 -13 -4 -3 -5 -16 -6 -28
-3 -22 5 -21 6 7 18 17 7 41 13 55 13 24 0 24 0 6 -14z m69 5 c3 -5 -1 -10
-10 -10 -9 0 -13 5 -10 10 3 6 8 10 10 10 2 0 7 -4 10 -10z m2166 -167 c-9
-16 -10 -14 -11 12 0 21 3 26 11 18 8 -8 8 -16 0 -30z m-235 -18 c6 -14 8 -13
19 1 8 12 14 14 19 5 4 -6 12 -8 18 -5 8 5 9 1 4 -12 -5 -10 -11 -27 -13 -37
-4 -11 -11 -16 -20 -13 -9 4 -17 -1 -20 -14 -3 -11 -14 -20 -24 -20 -26 0 -33
-18 -14 -36 18 -18 31 -11 37 21 6 34 33 24 36 -14 5 -46 -24 -73 -117 -112
-58 -24 -90 -31 -140 -31 -59 0 -62 -2 -40 -14 13 -7 32 -13 42 -14 25 0 21
-15 -8 -28 -14 -6 -25 -18 -25 -26 0 -28 101 -47 139 -26 20 10 148 16 157 7
17 -17 -10 -58 -54 -83 -26 -15 -55 -34 -64 -42 -10 -8 -26 -12 -38 -9 -11 3
-23 1 -26 -4 -17 -27 -88 1 -132 54 -13 15 -31 27 -40 27 -8 0 -13 3 -10 6 3
3 -5 17 -18 31 -13 14 -24 32 -24 40 0 7 -19 33 -41 57 -41 43 -113 156 -92
143 6 -4 13 3 16 15 6 20 7 20 31 5 33 -22 60 -22 52 -1 -3 8 1 22 9 31 20 20
117 53 155 53 17 0 45 7 61 16 17 8 33 13 36 11 2 -3 28 3 56 14 64 23 66 23
73 4z m1534 -25 c0 -5 -5 -10 -11 -10 -5 0 -7 5 -4 10 3 6 8 10 11 10 2 0 4
-4 4 -10z m-2414 -58 c-17 -16 -18 -16 -5 5 7 12 15 20 18 17 3 -2 -3 -12 -13
-22z m31 -202 c23 -7 24 -8 7 -9 -12 -1 -30 7 -41 17 -10 9 -13 13 -7 9 7 -5
25 -12 41 -17z m-764 -111 c11 -17 -18 -59 -40 -59 -13 0 -11 23 3 68 5 16 24
11 37 -9z m-135 -20 c-2 -6 -8 -10 -13 -10 -5 0 -11 4 -13 10 -2 6 4 11 13 11
9 0 15 -5 13 -11z m44 -29 c-2 -16 -9 -33 -15 -37 -7 -4 -8 0 -4 11 4 10 7 29
7 42 0 14 4 23 8 20 5 -3 7 -19 4 -36z m2487 -59 c5 -9 5 -26 0 -39 -8 -22 -9
-22 -36 -5 -27 17 -27 18 -5 21 24 4 29 21 10 41 -11 10 -9 11 5 5 10 -3 21
-14 26 -23z m-2559 -11 c0 -5 -5 -10 -11 -10 -5 0 -7 5 -4 10 3 6 8 10 11 10
2 0 4 -4 4 -10z m2290 -95 c13 -35 3 -53 -37 -70 -45 -19 -49 -19 -57 2 -9 22
41 93 66 93 11 0 22 -10 28 -25z m427 -11 c-3 -3 -12 -4 -19 -1 -8 3 -5 6 6 6
11 1 17 -2 13 -5z m-2237 -24 c0 -5 -11 -12 -25 -16 -14 -3 -25 -9 -25 -13 0
-10 -51 -33 -57 -27 -5 5 87 65 100 66 4 0 7 -4 7 -10z m-270 -9 c0 -5 -7 -14
-15 -21 -12 -10 -19 -10 -28 -1 -9 9 -9 14 3 21 19 12 40 13 40 1z m270 -66
c0 -20 -52 -45 -95 -45 -47 0 -45 17 4 25 22 3 47 13 58 20 23 19 33 18 33 0z
m-660 -44 c0 -17 -18 -21 -24 -6 -3 9 0 15 9 15 8 0 15 -4 15 -9z m789 -35
c-31 -31 -72 -44 -63 -22 3 9 12 16 19 16 7 0 23 9 36 19 33 26 39 16 8 -13z
m-239 -26 c0 -5 -13 -10 -29 -10 -17 0 -33 5 -36 10 -4 6 8 10 29 10 20 0 36
-4 36 -10z"/>
<path d="M1523 2655 c-77 -17 -109 -38 -117 -76 -9 -48 2 -52 40 -14 28 28 43
35 77 36 73 2 102 -3 110 -17 4 -8 17 -14 27 -14 27 0 25 -14 -2 -28 -40 -21
-173 -72 -185 -72 -16 0 -16 -15 -3 -41 8 -14 7 -19 -2 -19 -8 -1 -5 -7 6 -15
32 -25 166 -13 201 17 5 4 21 8 36 8 15 0 31 5 34 10 10 15 25 12 19 -4 -4
-11 0 -13 15 -9 23 6 29 23 9 23 -7 1 -1 8 15 16 32 17 33 21 10 46 -16 18
-16 18 0 12 12 -4 17 -1 17 10 0 10 6 13 15 10 30 -12 17 43 -16 68 -17 13
-41 33 -53 46 -21 19 -33 22 -107 21 -46 0 -112 -7 -146 -14z"/>
<path d="M2180 1955 c-10 -12 -10 -15 3 -15 8 0 17 7 21 15 3 8 2 15 -3 15 -5
0 -14 -7 -21 -15z"/>
<path d="M2005 1900 c3 -5 10 -10 16 -10 5 0 9 5 9 10 0 6 -7 10 -16 10 -8 0
-12 -4 -9 -10z"/>
<path d="M2140 3810 c0 -5 7 -10 15 -10 8 0 15 5 15 10 0 6 -7 10 -15 10 -8 0
-15 -4 -15 -10z"/>
<path d="M83 2657 c-11 -12 -24 -33 -27 -47 -6 -22 -5 -21 10 5 9 17 23 36 32
42 8 7 13 15 10 18 -2 3 -14 -5 -25 -18z"/>
<path d="M3240 2651 c-12 -24 -13 -34 -1 -27 9 6 22 46 15 46 -2 0 -8 -9 -14
-19z"/>
<path d="M100 2513 c-15 -18 -40 -68 -40 -80 0 -6 47 56 64 85 11 18 -7 14
-24 -5z"/>
<path d="M23 2248 c-23 -11 -32 -38 -13 -38 6 0 10 6 10 13 0 8 10 19 23 25
12 6 18 11 12 11 -5 0 -20 -5 -32 -11z"/>
</g>
</svg>
